<svg width="266" height="70" viewBox="0 0 266 70" fill="none" xmlns="http://www.w3.org/2000/svg">
<path d="M265.5 35C265.5 39.5591 261.981 44.0327 255.284 48.199C248.614 52.3488 238.93 56.1042 226.918 59.2652C202.902 65.5852 169.697 69.5 133 69.5C96.3032 69.5 63.098 65.5852 39.082 59.2652C27.0704 56.1042 17.3858 52.3488 10.7159 48.199C4.01948 44.0327 0.5 39.5591 0.5 35C0.5 30.4409 4.01948 25.9673 10.7159 21.801C17.3858 17.6512 27.0704 13.8958 39.082 10.7348C63.098 4.41481 96.3032 0.5 133 0.5C169.697 0.5 202.902 4.41481 226.918 10.7348C238.93 13.8958 248.614 17.6512 255.284 21.801C261.981 25.9673 265.5 30.4409 265.5 35Z" stroke="#5F65DA"/>
</svg>
