<svg width="154" height="24" viewBox="0 0 154 24" fill="none" xmlns="http://www.w3.org/2000/svg">
<g clip-path="url(#clip0_310:27)">
<path d="M0.0478941 12.2263C0.0561288 13.9629 1.21369 15.4029 2.96532 15.8094C3.53822 15.9418 4.1417 15.9565 4.71224 16.0946C7.80377 16.8429 9.82832 18.6769 10.7388 21.6339C11.1635 23.0116 12.3234 23.7961 13.5986 23.5946C14.8103 23.4022 15.6867 22.4965 15.7702 21.3497C15.8573 20.1701 15.1726 19.2452 13.9939 18.8026C13.0293 18.4392 12.0129 18.1097 11.1706 17.5573C9.10014 16.1886 8.05434 14.2063 7.79083 11.8063C7.56379 9.74256 5.81334 8.33652 3.70173 8.44973C1.59013 8.56294 0.0384831 10.158 0.0478941 12.2263Z" fill="#5F54E6"/>
<path d="M24.4524 11.4895C24.4442 9.7518 23.2866 8.3118 21.535 7.90539C20.9621 7.77293 20.3586 7.75935 19.788 7.6201C16.6965 6.8718 14.672 5.03784 13.7614 2.08086C13.3368 0.703124 12.1769 -0.0814043 10.9017 0.121237C9.69 0.31369 8.81359 1.21935 8.73007 2.36501C8.64302 3.54463 9.32767 4.46954 10.5064 4.91218C11.471 5.27558 12.4874 5.60614 13.3297 6.15746C15.4001 7.52614 16.4459 9.50841 16.7095 11.9084C16.9365 13.9722 18.687 15.3782 20.7986 15.265C22.9102 15.1518 24.4618 13.5567 24.4524 11.4895Z" fill="#5F54E6"/>
<path d="M9.02522 11.4114C9.01458 11.8031 9.08512 12.1929 9.23272 12.558C9.38032 12.9232 9.60202 13.2564 9.88488 13.5382C10.1677 13.82 10.5061 14.0447 10.8802 14.1993C11.2543 14.3539 11.6567 14.4353 12.0638 14.4386C13.8766 14.4805 15.2706 13.1933 15.2871 11.4691C15.2963 11.0779 15.2249 10.6889 15.0771 10.3244C14.9292 9.95984 14.7078 9.62711 14.4256 9.34537C14.1435 9.06362 13.8061 8.83843 13.4331 8.6828C13.06 8.52716 12.6586 8.44416 12.252 8.43858C10.451 8.40009 9.04051 9.69971 9.02522 11.4114Z" fill="#5F54E6"/>
<path d="M22.1994 19.1321C21.588 19.1226 20.9971 19.3446 20.5542 19.7503C20.1112 20.1561 19.8516 20.713 19.8314 21.3012C19.8272 21.9052 20.0697 22.4867 20.5067 22.9204C20.9436 23.354 21.5401 23.6052 22.1676 23.6197C23.4358 23.631 24.5628 22.5442 24.5381 21.3318C24.5257 20.7433 24.2737 20.183 23.8363 19.7716C23.3989 19.3602 22.811 19.1305 22.1994 19.1321Z" fill="#5F54E6"/>
<path d="M22.1995 0.0554526C21.5881 0.0462175 20.9974 0.268335 20.5545 0.673999C20.1117 1.07966 19.852 1.63645 19.8314 2.22451C19.7961 3.45508 20.8819 4.53281 22.1677 4.54413C23.4535 4.55545 24.5628 3.46753 24.5381 2.25621C24.5258 1.66762 24.2738 1.10722 23.8364 0.695625C23.399 0.28403 22.8112 0.0541461 22.1995 0.0554526Z" fill="#5F54E6"/>
<path d="M2.43826 0.055373C2.1273 0.0479762 1.81794 0.100503 1.52838 0.209861C1.23883 0.31922 0.974923 0.483203 0.752196 0.692162C0.529468 0.901121 0.352417 1.15084 0.231456 1.42662C0.110496 1.7024 0.0480703 1.99867 0.0478516 2.29802C0.062591 2.88622 0.310862 3.44665 0.741654 3.86417C1.17245 4.28168 1.75304 4.52457 2.36414 4.54292C3.64052 4.56783 4.76278 3.50481 4.75926 2.27877C4.75098 1.68981 4.50346 1.12736 4.06967 0.711814C3.63589 0.296269 3.0503 0.0606443 2.43826 0.055373Z" fill="#5F54E6"/>
<path d="M2.43826 19.132C2.12739 19.1246 1.81813 19.1771 1.52866 19.2864C1.23918 19.3957 0.975328 19.5596 0.752616 19.7684C0.529905 19.9773 0.352829 20.2268 0.231798 20.5025C0.110768 20.7781 0.048227 21.0743 0.0478516 21.3735C0.0622948 21.9619 0.310435 22.5227 0.741258 22.9404C1.17208 23.3582 1.75284 23.6012 2.36414 23.6196C3.64052 23.6434 4.76278 22.5815 4.75926 21.3554C4.75098 20.7665 4.50346 20.204 4.06967 19.7885C3.63589 19.3729 3.0503 19.1373 2.43826 19.132Z" fill="#5F54E6"/>
<path d="M44.3696 3.67702C44.8739 3.94169 45.2853 4.34432 45.5519 4.834C45.8504 5.4008 45.9968 6.0305 45.9777 6.6657V9.92042C45.9899 10.0159 45.9809 10.1128 45.9513 10.2047C45.9217 10.2966 45.8721 10.3814 45.8059 10.4534C45.7397 10.5255 45.6583 10.5832 45.5671 10.6227C45.476 10.6623 45.3772 10.6827 45.2772 10.6827C45.1772 10.6827 45.0784 10.6623 44.9872 10.6227C44.8961 10.5832 44.8147 10.5255 44.7485 10.4534C44.6822 10.3814 44.6327 10.2966 44.603 10.2047C44.5734 10.1128 44.5644 10.0159 44.5766 9.92042V6.6657C44.5766 5.95249 44.3774 5.41249 43.979 5.0457C43.5806 4.67891 43.0513 4.49589 42.3909 4.49664C42.0269 4.49279 41.6669 4.5703 41.3392 4.72306C41.0406 4.85946 40.7846 5.06913 40.597 5.33098C40.4196 5.58518 40.3264 5.88517 40.3299 6.19136V9.92155C40.3327 10.0102 40.3171 10.0986 40.284 10.1814C40.2508 10.2642 40.2009 10.3398 40.137 10.4038C40.0384 10.5004 39.9121 10.5664 39.7742 10.5934C39.6363 10.6204 39.4932 10.6071 39.3633 10.5553C39.2333 10.5035 39.1224 10.4154 39.0448 10.3025C38.9672 10.1896 38.9264 10.0569 38.9277 9.92155V4.02117C38.9235 3.93081 38.939 3.84061 38.9732 3.75638C39.0075 3.67214 39.0597 3.59575 39.1265 3.53211C39.2244 3.43353 39.3511 3.36593 39.4899 3.33828C39.6287 3.31062 39.7729 3.32423 39.9034 3.37728C40.034 3.43033 40.1447 3.52032 40.2209 3.63532C40.297 3.75032 40.3351 3.88489 40.3299 4.02117V4.16608C40.6275 3.88102 40.9832 3.65824 41.3745 3.51174C41.8577 3.33481 42.3743 3.25807 42.8904 3.28656C43.4065 3.31504 43.9106 3.4481 44.3696 3.67702Z" fill="black"/>
<path d="M53.3313 3.67691C53.8333 3.94269 54.2425 4.34518 54.5077 4.83389C54.8075 5.40039 54.9551 6.0301 54.9371 6.66559V9.92031C54.9486 10.0155 54.939 10.1119 54.909 10.2033C54.879 10.2946 54.8292 10.3788 54.763 10.4504C54.6968 10.5219 54.6156 10.5792 54.5248 10.6184C54.4339 10.6576 54.3355 10.6779 54.236 10.6779C54.1364 10.6779 54.038 10.6576 53.9471 10.6184C53.8563 10.5792 53.7751 10.5219 53.7089 10.4504C53.6427 10.3788 53.5929 10.2946 53.5629 10.2033C53.5329 10.1119 53.5234 10.0155 53.5348 9.92031V6.66559C53.5348 5.95239 53.3356 5.41239 52.9372 5.04559C52.5388 4.6788 52.0095 4.49578 51.3491 4.49654C50.9855 4.49286 50.6259 4.57036 50.2986 4.72295C50 4.85935 49.744 5.06903 49.5563 5.33088C49.378 5.58473 49.2845 5.88488 49.2881 6.19125V9.92144C49.2909 10.0101 49.2753 10.0985 49.2422 10.1813C49.209 10.2641 49.1591 10.3397 49.0952 10.4037C48.9966 10.5003 48.8702 10.5663 48.7324 10.5933C48.5945 10.6203 48.4514 10.607 48.3214 10.5552C48.1915 10.5034 48.0806 10.4153 48.0029 10.3024C47.9253 10.1895 47.8846 10.0568 47.8859 9.92144V4.02106C47.8819 3.93063 47.8976 3.8404 47.9321 3.75617C47.9665 3.67195 48.0189 3.59559 48.0858 3.53201C48.1834 3.43238 48.3103 3.36384 48.4495 3.33558C48.5887 3.30733 48.7336 3.3207 48.8646 3.37392C48.9957 3.42713 49.1068 3.51764 49.1829 3.63331C49.259 3.74898 49.2965 3.88428 49.2905 4.02106V4.16597C49.5881 3.88091 49.9437 3.65814 50.3351 3.51163C50.7474 3.35731 51.1867 3.28045 51.6291 3.28522C52.2218 3.27493 52.8075 3.40972 53.3313 3.67691Z" fill="black"/>
<path d="M58.292 10.1649C57.7249 9.86087 57.2581 9.40931 56.9451 8.86191C56.6289 8.27554 56.4639 7.6246 56.4639 6.96399C56.4639 6.30337 56.6289 5.65244 56.9451 5.06606C57.2581 4.51867 57.7249 4.06711 58.292 3.76305C58.8936 3.44436 59.5712 3.28241 60.2578 3.29323C60.9376 3.28296 61.6082 3.44499 62.2023 3.76305C62.7677 4.06938 63.2339 4.52038 63.5493 5.06606C63.8687 5.65124 64.0362 6.30214 64.0375 6.96315C64.0387 7.62417 63.8736 8.27564 63.5563 8.86191C63.2447 9.40799 62.7806 9.85932 62.2164 10.1649C61.6176 10.4838 60.9421 10.6454 60.2578 10.6336C59.5713 10.6448 58.8937 10.4832 58.292 10.1649ZM61.5153 9.12682C61.8839 8.91754 62.1839 8.61273 62.3811 8.2472C62.5921 7.8526 62.6984 7.41391 62.6905 6.97022C62.6977 6.52478 62.5915 6.08442 62.3811 5.68757C62.1855 5.31922 61.8853 5.01184 61.5153 4.80116C61.1314 4.59338 60.6983 4.48424 60.2578 4.48424C59.8173 4.48424 59.3842 4.59338 59.0002 4.80116C58.629 5.01248 58.3267 5.31953 58.1273 5.68757C57.9125 6.08309 57.8037 6.52398 57.8109 6.97022C57.803 7.41472 57.9119 7.85395 58.1273 8.2472C58.3282 8.61239 58.6304 8.91687 59.0002 9.12682C59.3842 9.3346 59.8173 9.44374 60.2578 9.44374C60.6983 9.44374 61.1314 9.3346 61.5153 9.12682Z" fill="black"/>
<path d="M71.3629 3.65779C71.4263 3.74961 71.4595 3.85772 71.4581 3.96798C71.456 4.05572 71.4326 4.14175 71.3899 4.2193L68.476 10.131C68.338 10.4216 68.1274 10.5672 67.8443 10.568C67.7085 10.5737 67.5741 10.5389 67.4596 10.4684C67.3392 10.3797 67.2444 10.2628 67.1843 10.1287L64.2704 4.21704C64.2329 4.14307 64.2139 4.06163 64.2151 3.9793C64.2151 3.74044 64.3434 3.56044 64.601 3.43704C64.6895 3.39117 64.7888 3.36816 64.8892 3.37025C65.0008 3.37116 65.1101 3.40087 65.2057 3.45629C65.3073 3.51387 65.3891 3.5989 65.4409 3.70081L67.8325 8.66157L70.1959 3.70081C70.247 3.59843 70.329 3.51323 70.4312 3.45629C70.5336 3.39995 70.6496 3.37029 70.7676 3.37025C70.877 3.3686 70.9854 3.39147 71.0841 3.43704C71.1967 3.48394 71.2933 3.56045 71.3629 3.65779Z" fill="black"/>
<path d="M77.4719 3.77649C78.0386 4.09192 78.5079 4.5467 78.8318 5.09422C79.1693 5.66383 79.3427 6.30986 79.3341 6.96554V9.91573C79.3455 10.0109 79.336 10.1073 79.306 10.1987C79.276 10.29 79.2262 10.3743 79.16 10.4458C79.0938 10.5173 79.0126 10.5746 78.9218 10.6138C78.8309 10.653 78.7325 10.6733 78.6329 10.6733C78.5334 10.6733 78.435 10.653 78.3441 10.6138C78.2533 10.5746 78.1721 10.5173 78.1059 10.4458C78.0397 10.3743 77.9899 10.29 77.9599 10.1987C77.9299 10.1073 77.9203 10.0109 77.9318 9.91573V9.43007C77.4035 10.0427 76.6647 10.4529 75.8492 10.5864C75.0337 10.72 74.1954 10.568 73.4863 10.158C72.948 9.83817 72.5107 9.38292 72.2217 8.84139C71.9094 8.26391 71.7506 7.62101 71.7594 6.97007C71.7507 6.31368 71.9219 5.66667 72.2558 5.09422C72.5776 4.54174 73.0503 4.08448 73.6228 3.77196C74.2104 3.44811 74.8773 3.28123 75.5544 3.28856C76.2276 3.28159 76.8902 3.4502 77.4719 3.77649ZM76.7978 9.11988C77.167 8.90611 77.4687 8.59969 77.6707 8.23347C77.885 7.8447 77.9939 7.41013 77.9871 6.97007C77.9933 6.52827 77.8845 6.092 77.6707 5.70101C77.5152 5.42601 77.3038 5.18395 77.0491 4.98928C76.7943 4.79461 76.5014 4.65132 76.1879 4.56796C75.8743 4.48459 75.5465 4.46287 75.224 4.50408C74.9016 4.54529 74.591 4.64858 74.3109 4.80781C73.9395 5.02395 73.6355 5.33253 73.431 5.70101C73.2128 6.09069 73.1015 6.52747 73.1075 6.97007C73.1008 7.41095 73.2122 7.84605 73.431 8.23347C73.6371 8.59907 73.9408 8.90508 74.3109 9.11988C74.6884 9.33149 75.1175 9.44298 75.5544 9.44298C75.9912 9.44298 76.4203 9.33149 76.7978 9.11988Z" fill="black"/>
<path d="M84.6311 9.44379C84.7498 9.57555 84.8113 9.7462 84.8029 9.92039C84.8052 10.0109 84.7861 10.1008 84.747 10.1832C84.7078 10.2656 84.6497 10.3383 84.577 10.3959C84.4111 10.5247 84.2019 10.5908 83.9888 10.5815H83.7418C83.3063 10.5842 82.8791 10.4663 82.5113 10.2419C82.1399 10.0165 81.8384 9.69893 81.6384 9.32266C81.424 8.91732 81.3157 8.46766 81.3232 8.01285V4.74794H80.6997C80.5273 4.75647 80.3584 4.69956 80.2291 4.58945C80.1714 4.5397 80.1256 4.47854 80.0947 4.41016C80.0639 4.34177 80.0487 4.26777 80.0503 4.19322C80.0468 4.11443 80.0609 4.03583 80.0918 3.96277C80.1227 3.88971 80.1695 3.8239 80.2291 3.76983C80.3584 3.65972 80.5273 3.60281 80.6997 3.61134H81.3326V1.70605C81.3326 1.53071 81.405 1.36255 81.5338 1.23856C81.6626 1.11458 81.8374 1.04492 82.0196 1.04492C82.2018 1.04492 82.3765 1.11458 82.5054 1.23856C82.6342 1.36255 82.7066 1.53071 82.7066 1.70605V3.61134H83.8747C84.0471 3.60256 84.2162 3.6595 84.3453 3.76983C84.4049 3.8239 84.4518 3.88971 84.4826 3.96277C84.5135 4.03583 84.5276 4.11443 84.5241 4.19322C84.5257 4.26777 84.5106 4.34177 84.4797 4.41016C84.4489 4.47854 84.403 4.5397 84.3453 4.58945C84.2162 4.69977 84.0471 4.75672 83.8747 4.74794H82.6995V8.01511C82.6884 8.33566 82.7955 8.64966 83.0019 8.90153C83.0882 9.0125 83.2002 9.10253 83.3291 9.16444C83.458 9.22636 83.6001 9.25844 83.7442 9.25813H84.2147C84.294 9.25782 84.3724 9.27428 84.4444 9.30637C84.5164 9.33845 84.5801 9.38537 84.6311 9.44379Z" fill="black"/>
<path d="M86.3087 1.91095C86.1639 1.76893 86.0747 1.58305 86.0561 1.38488C86.0375 1.18671 86.0908 0.988469 86.2069 0.823822C86.323 0.659176 86.4948 0.538276 86.693 0.481659C86.8912 0.425041 87.1037 0.436195 87.2943 0.513227C87.4849 0.590259 87.642 0.728419 87.7388 0.904242C87.8356 1.08007 87.8661 1.28271 87.8253 1.47776C87.7844 1.67281 87.6747 1.84825 87.5147 1.97426C87.3547 2.10028 87.1543 2.16911 86.9475 2.16906C86.8284 2.17034 86.7102 2.14809 86.6003 2.1037C86.4905 2.05931 86.3912 1.9937 86.3087 1.91095ZM86.4452 10.3891C86.3796 10.326 86.3281 10.2507 86.2939 10.1677C86.2597 10.0848 86.2435 9.99599 86.2464 9.9068V4.02001C86.2422 3.92965 86.2577 3.83945 86.292 3.75521C86.3262 3.67098 86.3784 3.59459 86.4452 3.53095C86.5431 3.43237 86.6699 3.36477 86.8086 3.33712C86.9474 3.30946 87.0916 3.32306 87.2222 3.37611C87.3527 3.42917 87.4634 3.51916 87.5396 3.63416C87.6157 3.74916 87.6538 3.88373 87.6486 4.02001V9.9068C87.6514 9.99549 87.6358 10.0838 87.6027 10.1666C87.5696 10.2495 87.5196 10.3251 87.4557 10.3891C87.3188 10.5126 87.1381 10.5813 86.9505 10.5813C86.7628 10.5813 86.5821 10.5126 86.4452 10.3891Z" fill="black"/>
<path d="M36.0138 2.169C36.2262 2.17103 36.4327 2.10198 36.5981 1.97367C36.7634 1.84536 36.8773 1.66576 36.9203 1.46557C36.9633 1.26539 36.9326 1.05705 36.8337 0.876194C36.7347 0.695334 36.5735 0.553182 36.3776 0.474045C36.1818 0.394907 35.9634 0.3837 35.76 0.442339C35.5565 0.500978 35.3805 0.625822 35.2621 0.795523C35.1436 0.965223 35.0902 1.16924 35.1108 1.37269C35.1314 1.57614 35.2248 1.76638 35.375 1.91089C35.4575 1.99359 35.5568 2.05916 35.6666 2.10355C35.7765 2.14794 35.8946 2.17021 36.0138 2.169Z" fill="black"/>
<path d="M36.0136 3.34642C35.9214 3.34372 35.8296 3.35876 35.7436 3.39064C35.6575 3.42252 35.579 3.47061 35.5125 3.53208C35.4457 3.59572 35.3935 3.67212 35.3592 3.75635C35.325 3.84058 35.3095 3.93078 35.3137 4.02114V9.90793C35.3162 10.0416 35.3593 10.1717 35.4375 10.2823C35.5158 10.3928 35.6259 10.4789 35.7542 10.5301C35.8826 10.5813 36.0237 10.5953 36.1603 10.5705C36.2968 10.5456 36.4229 10.483 36.523 10.3902C36.5867 10.3261 36.6364 10.2505 36.6693 10.1677C36.7023 10.0848 36.7177 9.99655 36.7147 9.90793V4.02114C36.7214 3.9303 36.7077 3.83915 36.6745 3.75384C36.6414 3.66854 36.5896 3.59107 36.5227 3.52668C36.4558 3.46229 36.3753 3.41247 36.2867 3.38059C36.198 3.34871 36.1033 3.33551 36.0089 3.3419L36.0136 3.34642Z" fill="black"/>
<path d="M95.9079 3.6577C95.9717 3.74942 96.0054 3.85751 96.0044 3.96789C96.0018 4.05571 95.9781 4.14176 95.935 4.21921L93.0222 10.1309C92.8846 10.4219 92.6693 10.5679 92.3893 10.5679C92.2535 10.5733 92.1193 10.5385 92.0047 10.4683C91.8842 10.3796 91.7894 10.2627 91.7294 10.1286L88.8167 4.21921C88.7795 4.14515 88.761 4.06371 88.7625 3.98147C88.7625 3.74261 88.8908 3.56261 89.1472 3.43921C89.2358 3.39363 89.335 3.37064 89.4354 3.37242C89.547 3.37316 89.6564 3.40289 89.7519 3.45846C89.8532 3.51646 89.9349 3.60137 89.9872 3.70298L92.3776 8.66374L94.7421 3.70298C94.7937 3.60088 94.8756 3.51578 94.9774 3.45846C95.0803 3.40212 95.1966 3.37248 95.315 3.37242C95.4241 3.37057 95.5321 3.39345 95.6303 3.43921C95.7422 3.48567 95.8384 3.56136 95.9079 3.6577Z" fill="black"/>
<path d="M103.26 7.26794C103.2 7.32323 103.129 7.36634 103.051 7.39473C102.974 7.42312 102.891 7.43621 102.808 7.43323H97.5844C97.6677 8.01992 97.9797 8.55416 98.4573 8.92756C98.8235 9.20334 99.2556 9.38655 99.7142 9.4605C100.173 9.53445 100.643 9.4968 101.083 9.35096C101.346 9.27041 101.594 9.15004 101.818 8.99436C101.947 8.8965 102.107 8.84487 102.271 8.84832C102.421 8.84004 102.569 8.88744 102.684 8.98077C102.758 9.03298 102.82 9.10097 102.862 9.17949C102.905 9.25801 102.929 9.34495 102.931 9.4336C102.931 9.5121 102.911 9.58937 102.872 9.65864C102.834 9.72792 102.779 9.78709 102.711 9.83096C102.362 10.0876 101.969 10.2845 101.55 10.4128C101.005 10.5953 100.426 10.6678 99.8501 10.6257C99.2743 10.5836 98.7137 10.4279 98.2032 10.1683C97.6209 9.86766 97.1377 9.41633 96.808 8.8653C96.4684 8.28912 96.2953 7.63592 96.3068 6.9736C96.2943 6.31302 96.4562 5.66018 96.7774 5.07624C97.0804 4.52913 97.5374 4.0752 98.0961 3.76643C98.6805 3.44849 99.3424 3.28632 100.014 3.29662C100.655 3.28175 101.288 3.43852 101.842 3.74945C102.352 4.04982 102.761 4.48638 103.018 5.00606C103.302 5.58473 103.442 6.21852 103.43 6.85813C103.432 6.93399 103.419 7.00956 103.39 7.08009C103.361 7.15061 103.317 7.21457 103.26 7.26794ZM98.389 4.95964C97.9629 5.32876 97.6834 5.82905 97.5985 6.37473H102.175C102.121 5.84131 101.878 5.34186 101.488 4.95964C101.112 4.60719 100.622 4.43096 100.017 4.43096C99.349 4.43096 98.8062 4.60719 98.389 4.95964Z" fill="black"/>
<path d="M44.9953 17.4114C45.4855 17.914 45.7306 18.6148 45.7306 19.5137V23.2971C45.7335 23.3857 45.7181 23.474 45.6852 23.5568C45.6523 23.6396 45.6025 23.7152 45.5388 23.7793C45.4402 23.8759 45.3139 23.9419 45.176 23.9689C45.0382 23.9959 44.8951 23.9827 44.7651 23.9308C44.6351 23.879 44.5242 23.791 44.4466 23.678C44.369 23.5651 44.3282 23.4324 44.3295 23.2971V19.5137C44.3295 18.9763 44.1895 18.5688 43.9095 18.291C43.7634 18.1503 43.5882 18.0406 43.3953 17.9688C43.2025 17.8971 42.9962 17.8649 42.7896 17.8744C42.5696 17.8679 42.3507 17.907 42.1477 17.9891C41.9448 18.0711 41.7625 18.1942 41.6132 18.3499C41.3007 18.6822 41.1356 19.119 41.1533 19.5669V23.3027C41.1561 23.3914 41.1405 23.4798 41.1073 23.5626C41.0742 23.6454 41.0242 23.721 40.9604 23.785C40.8618 23.8816 40.7354 23.9476 40.5976 23.9746C40.4597 24.0016 40.3166 23.9883 40.1866 23.9365C40.0566 23.8847 39.9457 23.7966 39.8681 23.6837C39.7905 23.5708 39.7497 23.4381 39.751 23.3027V19.5137C39.751 18.9763 39.6114 18.5688 39.3322 18.291C39.186 18.1504 39.0109 18.0406 38.818 17.9689C38.6251 17.8972 38.4188 17.865 38.2123 17.8744C37.9903 17.8672 37.7692 17.9059 37.564 17.9879C37.3589 18.0699 37.1744 18.1934 37.023 18.3499C36.7104 18.6822 36.5453 19.119 36.563 19.5669V23.3027C36.5658 23.3914 36.5502 23.4798 36.5171 23.5626C36.484 23.6454 36.434 23.721 36.3701 23.785C36.2715 23.8816 36.1452 23.9476 36.0073 23.9746C35.8695 24.0016 35.7263 23.9883 35.5964 23.9365C35.4664 23.8847 35.3555 23.7966 35.2779 23.6837C35.2003 23.5708 35.1595 23.4381 35.1608 23.3027V17.4159C35.1567 17.3254 35.1723 17.2351 35.2065 17.1507C35.2408 17.0663 35.2929 16.9897 35.3596 16.9257C35.4263 16.8643 35.5051 16.8164 35.5914 16.7847C35.6777 16.753 35.7696 16.7382 35.8619 16.7412C35.9527 16.7379 36.0432 16.752 36.1282 16.7827C36.2133 16.8134 36.2911 16.8601 36.3572 16.9201C36.487 17.0443 36.561 17.2126 36.563 17.3888C36.8063 17.1566 37.0961 16.9744 37.4147 16.8533C37.7558 16.7235 38.1197 16.6585 38.4864 16.662C38.9219 16.6552 39.3529 16.7479 39.744 16.9325C40.1126 17.111 40.4273 17.3777 40.658 17.7069C40.9363 17.3784 41.2893 17.1158 41.6897 16.9393C42.1207 16.7501 42.59 16.6553 43.0637 16.662C43.8613 16.6589 44.5052 16.9088 44.9953 17.4114Z" fill="black"/>
<path d="M54.2112 20.6445C54.1507 20.6997 54.0794 20.7427 54.0014 20.7711C53.9235 20.7995 53.8404 20.8126 53.7571 20.8097H48.534C48.6178 21.3959 48.9303 21.9294 49.408 22.3018C49.9079 22.6858 50.5333 22.8864 51.1726 22.8678C51.4652 22.8648 51.7553 22.8155 52.0313 22.7218C52.2947 22.6417 52.543 22.5213 52.7666 22.3652C52.8953 22.2674 53.0555 22.2157 53.2195 22.2192C53.3697 22.2109 53.5174 22.2583 53.6324 22.3516C53.7069 22.4038 53.7679 22.4718 53.8107 22.5503C53.8536 22.6289 53.8771 22.7158 53.8794 22.8045C53.8794 22.883 53.8594 22.9603 53.821 23.0296C53.7826 23.0989 53.7272 23.158 53.6594 23.2018C53.3103 23.4589 52.9174 23.6558 52.4984 23.7837C51.9538 23.968 51.3756 24.0422 50.7999 24.0014C50.2242 23.9607 49.6634 23.8061 49.1527 23.5471C48.5713 23.244 48.0893 22.7908 47.7611 22.2384C47.4213 21.6623 47.2483 21.0091 47.2599 20.3467C47.2475 19.6861 47.4094 19.0333 47.7305 18.4494C48.0353 17.9016 48.4944 17.4476 49.0551 17.1395C49.639 16.8214 50.3006 16.6592 50.9714 16.6697C51.6127 16.6543 52.2457 16.8111 52.7995 17.1226C53.312 17.4221 53.7228 17.8587 53.9818 18.3792C54.2659 18.9572 54.4068 19.5908 54.3935 20.2301C54.395 20.3076 54.3795 20.3845 54.3481 20.4559C54.3166 20.5273 54.27 20.5915 54.2112 20.6445ZM49.3386 18.3395C48.9122 18.709 48.6327 19.2097 48.5481 19.7558H53.1254C53.0415 19.1648 52.8121 18.6928 52.4372 18.3395C52.0623 17.9863 51.5722 17.8101 50.9667 17.8109C50.2985 17.8086 49.7558 17.9848 49.3386 18.3395Z" fill="black"/>
<path d="M62.4847 13.8112C62.5495 13.8759 62.6 13.9527 62.6329 14.0368C62.6659 14.1208 62.6807 14.2105 62.6765 14.3003V20.332C62.685 20.9875 62.512 21.6334 62.1753 22.2033C61.8533 22.7528 61.3852 23.21 60.819 23.5278C60.2367 23.8522 59.5742 24.0192 58.9014 24.0112C58.2248 24.0179 57.5585 23.851 56.971 23.5278C56.3982 23.2153 55.9251 22.7581 55.6029 22.2056C55.2706 21.6343 55.1002 20.9889 55.1088 20.3343C55.0994 19.6832 55.2574 19.0399 55.5688 18.4618C55.8582 17.9209 56.2954 17.4661 56.8334 17.1463C57.5408 16.7299 58.381 16.5742 59.1985 16.7081C60.0161 16.8419 60.7555 17.2562 61.2801 17.8743V14.3026C61.2759 14.2122 61.2914 14.122 61.3257 14.0378C61.3599 13.9535 61.4121 13.8771 61.4789 13.8135C61.6178 13.6938 61.7977 13.6277 61.9842 13.6277C62.1706 13.6277 62.3505 13.6938 62.4894 13.8135L62.4847 13.8112ZM60.1414 22.4943C60.5113 22.2785 60.8131 21.9696 61.0142 21.6011C61.2277 21.21 61.3361 20.7737 61.3295 20.332C61.3366 19.892 61.2282 19.4575 61.0142 19.0686C60.8115 18.7029 60.5099 18.3966 60.1414 18.1822C59.7637 17.9704 59.3344 17.8588 58.8973 17.8588C58.4602 17.8588 58.0309 17.9704 57.6533 18.1822C57.2835 18.3973 56.9798 18.7032 56.7734 19.0686C56.555 19.4561 56.4439 19.8912 56.451 20.332C56.4447 20.7745 56.5556 21.2113 56.7734 21.6011C56.9782 21.9693 57.2821 22.2778 57.6533 22.4943C58.0309 22.7061 58.4602 22.8177 58.8973 22.8177C59.3344 22.8177 59.7637 22.7061 60.1414 22.4943Z" fill="black"/>
<path d="M64.9363 15.2887C64.7906 15.1466 64.7005 14.9604 64.6813 14.7617C64.6622 14.5629 64.7151 14.3639 64.8312 14.1985C64.9473 14.0331 65.1193 13.9115 65.318 13.8543C65.5167 13.7971 65.7299 13.808 65.9213 13.885C66.1126 13.9619 66.2704 14.1003 66.3677 14.2766C66.465 14.4528 66.4959 14.6561 66.4551 14.8518C66.4143 15.0475 66.3043 15.2236 66.1439 15.3501C65.9835 15.4765 65.7824 15.5457 65.575 15.5457C65.456 15.547 65.3379 15.5249 65.228 15.4807C65.1182 15.4365 65.0189 15.3712 64.9363 15.2887ZM65.0739 23.7657C65.0081 23.7027 64.9564 23.6274 64.922 23.5445C64.8876 23.4615 64.8712 23.3727 64.8739 23.2834V17.3966C64.8699 17.3062 64.8857 17.2159 64.9201 17.1317C64.9546 17.0475 65.007 16.9711 65.0739 16.9076C65.1716 16.8088 65.2983 16.741 65.4371 16.7132C65.5759 16.6855 65.7201 16.699 65.8507 16.7521C65.9813 16.8052 66.0919 16.8954 66.1679 17.0105C66.2439 17.1256 66.2817 17.2603 66.2762 17.3966V23.2834C66.279 23.3721 66.2634 23.4605 66.2303 23.5433C66.1972 23.6261 66.1472 23.7017 66.0832 23.7657C65.9466 23.8894 65.7661 23.9582 65.5786 23.9582C65.391 23.9582 65.2105 23.8894 65.0739 23.7657Z" fill="black"/>
<path d="M69.9333 23.5347C69.365 23.2249 68.8973 22.769 68.5829 22.2181C68.2537 21.6458 68.0855 21.0008 68.0947 20.3468C68.0822 19.6862 68.2441 19.0334 68.5652 18.4494C68.87 17.9009 69.3301 17.4467 69.8922 17.1396C70.4788 16.822 71.1425 16.6599 71.8156 16.6698C72.3288 16.6605 72.8375 16.7627 73.304 16.9689C73.7704 17.1751 74.1825 17.48 74.5095 17.8607C74.5986 17.9529 74.6478 18.0744 74.6471 18.2003C74.6444 18.2999 74.6152 18.3972 74.5623 18.4829C74.5094 18.5685 74.4345 18.6396 74.3448 18.6894C74.2521 18.7517 74.1413 18.7842 74.0283 18.7822C73.9261 18.7831 73.825 18.7621 73.7322 18.7208C73.6394 18.6795 73.5574 18.6189 73.4919 18.5434C73.2841 18.32 73.029 18.142 72.7437 18.0215C72.449 17.9071 72.1333 17.8508 71.8156 17.8562C71.1097 17.8562 70.5372 18.0826 70.098 18.5354C69.6589 18.9883 69.4389 19.5898 69.4381 20.34C69.4293 20.7856 69.5356 21.2263 69.7475 21.6226C69.9444 21.9883 70.2445 22.2932 70.6133 22.5022C70.9988 22.7175 71.4382 22.8271 71.8838 22.8192C72.5112 22.8192 73.0155 22.6649 73.3966 22.3562C73.5408 22.2435 73.7191 22.1787 73.9048 22.1717C74.0327 22.1733 74.1566 22.215 74.2577 22.2905C74.3358 22.3456 74.4 22.4169 74.4452 22.4993C74.4904 22.5817 74.5156 22.6729 74.5189 22.766C74.5181 22.8334 74.5029 22.8999 74.4744 22.9614C74.4459 23.0229 74.4046 23.0782 74.353 23.1237C73.6942 23.7147 72.8708 24.0101 71.8826 24.0101C71.2006 24.0201 70.5281 23.856 69.9333 23.5347Z" fill="black"/>
<path d="M81.649 17.1533C82.2167 17.47 82.6865 17.9263 83.0101 18.4756C83.3468 19.0455 83.5198 19.6914 83.5112 20.3469V23.2971C83.5235 23.3926 83.5145 23.4895 83.4848 23.5814C83.4552 23.6733 83.4057 23.7581 83.3394 23.8301C83.2732 23.9022 83.1918 23.9599 83.1007 23.9994C83.0095 24.039 82.9107 24.0594 82.8107 24.0594C82.7107 24.0594 82.6119 24.039 82.5207 23.9994C82.4296 23.9599 82.3482 23.9022 82.282 23.8301C82.2157 23.7581 82.1662 23.6733 82.1366 23.5814C82.1069 23.4895 82.0979 23.3926 82.1102 23.2971V22.8069C81.5821 23.4202 80.843 23.8309 80.0271 23.9645C79.2112 24.098 78.3725 23.9456 77.6634 23.5349C77.1252 23.215 76.6879 22.7597 76.3988 22.2183C76.0874 21.6406 75.9294 20.9977 75.9389 20.3469C75.9301 19.6921 76.1009 19.0466 76.4341 18.4756C76.7559 17.9231 77.2286 17.4659 77.8011 17.1533C78.3886 16.8302 79.0549 16.6633 79.7315 16.6699C80.4043 16.662 81.0667 16.829 81.649 17.1533ZM80.9761 22.4967C81.345 22.2826 81.6466 21.9763 81.849 21.6103C82.063 21.2215 82.1714 20.7869 82.1643 20.3469C82.1707 19.9052 82.0624 19.469 81.849 19.0779C81.6933 18.8029 81.4818 18.561 81.2269 18.3664C80.972 18.1718 80.679 18.0286 80.3654 17.9452C80.0518 17.8619 79.724 17.8401 79.4015 17.8813C79.0789 17.9224 78.7683 18.0256 78.4881 18.1847C78.1169 18.4011 77.813 18.7096 77.6082 19.0779C77.3912 19.4679 77.2811 19.9046 77.2882 20.3469C77.2811 20.7877 77.3921 21.2228 77.6105 21.6103C77.8169 21.9757 78.1206 22.2816 78.4904 22.4967C78.8681 22.7086 79.2974 22.8202 79.7345 22.8202C80.1716 22.8202 80.6008 22.7086 80.9785 22.4967H80.9761Z" fill="black"/>
<path d="M85.9099 23.6466C85.5841 23.4283 85.3292 23.1257 85.1746 22.7738C84.9953 22.3749 84.9063 21.9439 84.9135 21.5093V14.29C84.9135 14.1147 84.9859 13.9465 85.1147 13.8225C85.2435 13.6986 85.4183 13.6289 85.6005 13.6289C85.7827 13.6289 85.9574 13.6986 86.0863 13.8225C86.2151 13.9465 86.2875 14.1147 86.2875 14.29V21.5093C86.2763 21.79 86.3429 22.0686 86.4804 22.3165C86.6091 22.5285 86.7737 22.6342 86.9745 22.6334H87.318C87.4021 22.6307 87.4859 22.646 87.5631 22.6781C87.6404 22.7102 87.7094 22.7583 87.765 22.8191C87.8828 22.9514 87.9442 23.1217 87.9368 23.2957C87.9377 23.3896 87.9142 23.4822 87.8686 23.5652C87.8231 23.6482 87.7567 23.719 87.6756 23.7712C87.4781 23.9015 87.242 23.9666 87.0027 23.9568H86.9745C86.595 23.9611 86.2232 23.8528 85.9099 23.6466Z" fill="black"/>
<path d="M93.4892 23.7328C93.0067 23.5871 92.5644 23.3386 92.1952 23.006C92.1377 22.953 92.0921 22.8891 92.0614 22.8184C92.0306 22.7477 92.0153 22.6717 92.0164 22.595C92.015 22.4942 92.0392 22.3945 92.087 22.3047C92.1347 22.2149 92.2046 22.1378 92.2905 22.08C92.4264 21.9706 92.5949 21.9056 92.7717 21.8943C92.871 21.8979 92.9685 21.921 93.0583 21.9621C93.1481 22.0031 93.2283 22.0613 93.294 22.1332C93.5151 22.3474 93.7826 22.512 94.0774 22.6154C94.4313 22.7532 94.8098 22.8228 95.1915 22.8203C95.7138 22.8203 96.1192 22.7366 96.4079 22.569C96.5382 22.5054 96.6477 22.4082 96.7241 22.2883C96.8005 22.1684 96.8409 22.0304 96.8408 21.8898C96.8408 21.6169 96.6984 21.3894 96.4137 21.2105C96.1291 21.0316 95.6491 20.8777 94.9715 20.7577C93.2132 20.4286 92.3344 19.732 92.3352 18.6679C92.3232 18.2673 92.4647 17.8764 92.7328 17.5698C93.0129 17.2588 93.3732 17.0245 93.7775 16.8905C94.2183 16.7387 94.6833 16.6621 95.1515 16.6641C95.6993 16.6556 96.2436 16.7502 96.7537 16.9426C97.1888 17.1021 97.5743 17.3659 97.8736 17.709C97.9823 17.826 98.0454 17.9756 98.0524 18.1324C98.0484 18.2135 98.0251 18.2926 97.9843 18.3636C97.9435 18.4347 97.8863 18.4958 97.8172 18.5422C97.7042 18.6167 97.5693 18.6541 97.4325 18.6486C97.1917 18.6474 96.9606 18.5575 96.7866 18.3973C96.5779 18.2065 96.3298 18.0599 96.0585 17.9671C95.7539 17.8764 95.4361 17.834 95.1174 17.8415C94.7594 17.8288 94.4036 17.8991 94.0798 18.0464C93.8092 18.183 93.6739 18.375 93.6739 18.6226C93.6683 18.7807 93.7167 18.9361 93.8116 19.0652C93.9532 19.2169 94.1331 19.3308 94.3339 19.3958C94.6955 19.5261 95.0683 19.6257 95.4479 19.6935C96.4455 19.8875 97.1533 20.1562 97.5713 20.4996C97.7735 20.6624 97.9347 20.8672 98.0429 21.0985C98.1511 21.3299 98.2034 21.5818 98.196 21.8354C98.2002 22.2287 98.0804 22.6139 97.8524 22.9403C97.6008 23.2887 97.2499 23.5595 96.8419 23.7203C96.3349 23.9222 95.7894 24.0193 95.2409 24.0056C94.6452 24.0105 94.0529 23.9183 93.4892 23.7328Z" fill="black"/>
<path d="M101.008 23.5473C100.44 23.2438 99.973 22.7921 99.6607 22.2442C99.3445 21.6579 99.1794 21.0069 99.1794 20.3463C99.1794 19.6857 99.3445 19.0348 99.6607 18.4484C99.973 17.9005 100.44 17.4488 101.008 17.1454C101.609 16.8266 102.286 16.6646 102.972 16.6756C103.652 16.6653 104.323 16.8273 104.917 17.1454C105.482 17.4514 105.949 17.9025 106.264 18.4484C106.583 19.0336 106.751 19.6845 106.752 20.3455C106.753 21.0065 106.588 21.658 106.271 22.2442C105.96 22.7902 105.497 23.2416 104.933 23.5473C104.329 23.8557 103.656 24.017 102.972 24.017C102.288 24.017 101.614 23.8557 101.01 23.5473H101.008ZM104.227 22.5035C104.596 22.2945 104.896 21.9896 105.093 21.6239C105.305 21.2294 105.411 20.7907 105.404 20.3469C105.411 19.9015 105.305 19.4611 105.094 19.0642C104.899 18.6956 104.599 18.3882 104.229 18.1778C103.845 17.9701 103.411 17.8609 102.971 17.8609C102.53 17.8609 102.097 17.9701 101.713 18.1778C101.343 18.3895 101.04 18.6964 100.841 19.0642C100.626 19.4599 100.518 19.9008 100.525 20.3469C100.518 20.791 100.626 21.2298 100.842 21.6227C101.043 21.9877 101.345 22.2921 101.715 22.5024C102.099 22.7101 102.532 22.8193 102.972 22.8193C103.413 22.8193 103.846 22.7101 104.23 22.5024L104.227 22.5035Z" fill="black"/>
<path d="M109.149 23.6468C108.824 23.4279 108.569 23.1255 108.414 22.774C108.235 22.3754 108.146 21.9448 108.153 21.5106V14.2902C108.149 14.201 108.164 14.112 108.197 14.0285C108.23 13.945 108.28 13.8688 108.344 13.8043C108.408 13.7399 108.485 13.6887 108.571 13.6537C108.656 13.6186 108.748 13.6006 108.841 13.6006C108.933 13.6006 109.025 13.6186 109.11 13.6537C109.196 13.6887 109.273 13.7399 109.337 13.8043C109.401 13.8688 109.451 13.945 109.484 14.0285C109.517 14.112 109.532 14.201 109.528 14.2902V21.5095C109.517 21.7901 109.583 22.0687 109.72 22.3166C109.848 22.5283 110.014 22.6336 110.215 22.6336H110.559C110.643 22.6311 110.726 22.6464 110.804 22.6785C110.881 22.7106 110.95 22.7586 111.006 22.8193C111.123 22.9516 111.185 23.1218 111.177 23.2959C111.178 23.3898 111.155 23.4824 111.109 23.5654C111.064 23.6484 110.997 23.7192 110.916 23.7714C110.718 23.9018 110.482 23.967 110.242 23.957H110.215C109.835 23.9613 109.463 23.853 109.149 23.6468Z" fill="black"/>
<path d="M118.846 16.8952C118.911 16.9599 118.962 17.0366 118.994 17.1207C119.027 17.2048 119.042 17.2945 119.038 17.3843V23.2835C119.041 23.3721 119.026 23.4605 118.993 23.5433C118.96 23.6261 118.91 23.7018 118.846 23.7658C118.748 23.8623 118.621 23.9284 118.483 23.9554C118.346 23.9824 118.203 23.9691 118.073 23.9173C117.943 23.8654 117.832 23.7774 117.754 23.6645C117.676 23.5516 117.636 23.4189 117.637 23.2835V23.1375C117.339 23.4227 116.984 23.6458 116.592 23.7929C116.109 23.9699 115.592 24.0466 115.076 24.0181C114.56 23.9897 114.055 23.8566 113.596 23.6277C113.092 23.3628 112.68 22.9598 112.414 22.4695C112.117 21.9023 111.972 21.2727 111.992 20.6378V17.3843C111.98 17.2891 111.99 17.1927 112.02 17.1013C112.05 17.0099 112.099 16.9257 112.166 16.8542C112.232 16.7826 112.313 16.7254 112.404 16.6862C112.495 16.647 112.593 16.6267 112.693 16.6267C112.792 16.6267 112.891 16.647 112.981 16.6862C113.072 16.7254 113.154 16.7826 113.22 16.8542C113.286 16.9257 113.336 17.0099 113.366 17.1013C113.396 17.1927 113.405 17.2891 113.394 17.3843V20.6378C113.394 21.3518 113.593 21.8918 113.991 22.2578C114.39 22.6239 114.919 22.8069 115.578 22.8069C115.942 22.8107 116.302 22.7332 116.63 22.5805C116.929 22.4443 117.185 22.2341 117.372 21.9714C117.55 21.7179 117.644 21.4182 117.64 21.1122V17.3843C117.636 17.2939 117.652 17.2037 117.686 17.1195C117.72 17.0352 117.772 16.9588 117.839 16.8952C117.978 16.7755 118.158 16.7094 118.345 16.7094C118.531 16.7094 118.711 16.7755 118.85 16.8952H118.846Z" fill="black"/>
<path d="M124.721 22.8204C124.839 22.9527 124.9 23.123 124.893 23.297C124.895 23.3877 124.876 23.4777 124.837 23.5602C124.797 23.6426 124.739 23.7152 124.666 23.7725C124.5 23.9017 124.291 23.9677 124.078 23.9582H123.831C123.395 23.961 122.968 23.8431 122.6 23.6186C122.229 23.3931 121.927 23.0756 121.727 22.6993C121.512 22.2941 121.404 21.8444 121.411 21.3895V18.1257H120.779C120.607 18.1341 120.437 18.0767 120.309 17.9661C120.251 17.9166 120.205 17.8554 120.174 17.787C120.143 17.7186 120.128 17.6445 120.13 17.5699C120.126 17.4911 120.14 17.4124 120.171 17.3393C120.202 17.2663 120.249 17.2005 120.309 17.1465C120.438 17.0367 120.607 16.9798 120.779 16.988H121.411V15.0827C121.407 14.9935 121.422 14.9045 121.455 14.821C121.488 14.7375 121.538 14.6612 121.602 14.5968C121.666 14.5324 121.743 14.4811 121.828 14.4461C121.914 14.4111 122.006 14.3931 122.098 14.3931C122.191 14.3931 122.283 14.4111 122.368 14.4461C122.454 14.4811 122.531 14.5324 122.595 14.5968C122.659 14.6612 122.709 14.7375 122.742 14.821C122.775 14.9045 122.79 14.9935 122.786 15.0827V16.988H123.954C124.126 16.9799 124.295 17.0368 124.425 17.1465C124.484 17.2006 124.531 17.2664 124.562 17.3395C124.593 17.4125 124.607 17.4911 124.603 17.5699C124.605 17.6444 124.59 17.7184 124.559 17.7868C124.528 17.8552 124.482 17.9164 124.425 17.9661C124.296 18.0766 124.127 18.1339 123.954 18.1257H122.786V21.3963C122.774 21.7169 122.881 22.0311 123.088 22.2827C123.175 22.3938 123.287 22.4839 123.415 22.5459C123.544 22.6078 123.687 22.6398 123.831 22.6393H124.301C124.381 22.6379 124.46 22.6535 124.532 22.6848C124.605 22.7161 124.669 22.7624 124.721 22.8204Z" fill="black"/>
<path d="M126.397 15.2887C126.251 15.1466 126.161 14.9602 126.142 14.7612C126.123 14.5622 126.175 14.3629 126.292 14.1972C126.408 14.0315 126.58 13.9097 126.779 13.8523C126.978 13.7949 127.191 13.8057 127.383 13.8826C127.574 13.9596 127.732 14.098 127.83 14.2745C127.928 14.4509 127.959 14.6544 127.918 14.8504C127.877 15.0463 127.767 15.2227 127.607 15.3495C127.446 15.4762 127.245 15.5456 127.037 15.5457C126.918 15.5473 126.8 15.5253 126.69 15.4811C126.58 15.4369 126.48 15.3714 126.397 15.2887ZM126.535 23.7657C126.469 23.7027 126.418 23.6274 126.384 23.5444C126.349 23.4615 126.333 23.3727 126.336 23.2835V17.3967C126.332 17.3063 126.348 17.2161 126.382 17.1319C126.416 17.0476 126.468 16.9713 126.535 16.9076C126.674 16.788 126.854 16.7218 127.04 16.7218C127.227 16.7218 127.407 16.788 127.546 16.9076C127.61 16.9723 127.661 17.049 127.694 17.1331C127.727 17.2172 127.742 17.3069 127.737 17.3967V23.2835C127.74 23.3721 127.725 23.4604 127.692 23.5433C127.659 23.6261 127.609 23.7017 127.546 23.7657C127.409 23.8893 127.228 23.958 127.04 23.958C126.853 23.958 126.672 23.8893 126.535 23.7657Z" fill="black"/>
<path d="M131.379 23.5473C130.812 23.2432 130.345 22.7916 130.032 22.2442C129.716 21.6579 129.551 21.0069 129.551 20.3463C129.551 19.6857 129.716 19.0348 130.032 18.4484C130.345 17.901 130.812 17.4494 131.379 17.1454C131.981 16.8267 132.659 16.6647 133.345 16.6756C134.025 16.6653 134.696 16.8273 135.29 17.1454C135.855 17.4517 136.321 17.9027 136.637 18.4484C136.956 19.0336 137.124 19.6845 137.125 20.3455C137.126 21.0065 136.961 21.658 136.644 22.2442C136.332 22.7903 135.868 23.2416 135.304 23.5473C134.705 23.8664 134.03 24.0284 133.345 24.0171C132.659 24.0279 131.981 23.8659 131.379 23.5473ZM134.603 22.5091C134.971 22.2999 135.271 21.9951 135.469 21.6295C135.679 21.2349 135.786 20.7962 135.778 20.3525C135.785 19.9071 135.679 19.4667 135.469 19.0699C135.273 18.7015 134.973 18.3942 134.603 18.1835C134.219 17.9757 133.786 17.8666 133.345 17.8666C132.905 17.8666 132.472 17.9757 132.088 18.1835C131.717 18.3951 131.414 18.7021 131.215 19.0699C131 19.4654 130.891 19.9063 130.898 20.3525C130.89 20.797 130.999 21.2363 131.215 21.6295C131.416 21.9945 131.718 22.2989 132.088 22.5091C132.472 22.7169 132.905 22.8261 133.345 22.8261C133.786 22.8261 134.219 22.7169 134.603 22.5091Z" fill="black"/>
<path d="M144.243 17.0536C144.746 17.3193 145.155 17.7223 145.419 18.2117C145.718 18.7786 145.864 19.4083 145.845 20.0434V23.297C145.858 23.3925 145.849 23.4894 145.819 23.5813C145.789 23.6732 145.74 23.758 145.674 23.83C145.607 23.9021 145.526 23.9598 145.435 23.9993C145.344 24.0389 145.245 24.0593 145.145 24.0593C145.045 24.0593 144.946 24.0389 144.855 23.9993C144.764 23.9598 144.682 23.9021 144.616 23.83C144.55 23.758 144.5 23.6732 144.471 23.5813C144.441 23.4894 144.432 23.3925 144.444 23.297V20.0434C144.444 19.3287 144.245 18.7883 143.846 18.4223C143.446 18.0563 142.917 17.8736 142.259 17.8744C141.895 17.8705 141.535 17.948 141.207 18.1008C140.908 18.2375 140.652 18.4476 140.465 18.7099C140.287 18.9635 140.194 19.2632 140.198 19.5691V23.3049C140.2 23.3936 140.185 23.482 140.152 23.5648C140.119 23.6476 140.069 23.7232 140.005 23.7872C139.906 23.8838 139.78 23.9498 139.642 23.9768C139.504 24.0038 139.361 23.9905 139.231 23.9387C139.101 23.8869 138.99 23.7988 138.912 23.6859C138.835 23.573 138.794 23.4403 138.795 23.3049V17.3978C138.791 17.3074 138.807 17.2172 138.841 17.133C138.875 17.0488 138.927 16.9724 138.994 16.9087C139.092 16.8101 139.219 16.7425 139.358 16.7149C139.496 16.6872 139.641 16.7008 139.771 16.7539C139.902 16.8069 140.012 16.8969 140.089 17.0119C140.165 17.1269 140.203 17.2615 140.198 17.3978V17.5472C140.495 17.2628 140.85 17.0401 141.241 16.8929C141.724 16.7159 142.241 16.6392 142.757 16.6677C143.274 16.6961 143.778 16.8292 144.237 17.0582L144.243 17.0536Z" fill="black"/>
<path d="M148.738 23.7328C148.256 23.5869 147.813 23.3385 147.444 23.006C147.387 22.9526 147.342 22.8887 147.312 22.818C147.281 22.7474 147.266 22.6716 147.266 22.5951C147.265 22.4941 147.289 22.3944 147.337 22.3045C147.384 22.2147 147.454 22.1376 147.541 22.08C147.676 21.9705 147.845 21.9054 148.022 21.8943C148.121 21.8979 148.219 21.921 148.308 21.9621C148.398 22.0031 148.478 22.0613 148.544 22.1332C148.765 22.3474 149.033 22.512 149.327 22.6154C149.681 22.7532 150.059 22.8229 150.44 22.8203C150.963 22.8203 151.368 22.7366 151.657 22.569C151.787 22.5056 151.897 22.4085 151.973 22.2885C152.05 22.1686 152.09 22.0305 152.09 21.8898C152.09 21.6169 151.948 21.3894 151.664 21.2105C151.379 21.0317 150.899 20.8777 150.221 20.7577C148.462 20.4309 147.582 19.7343 147.582 18.6679C147.57 18.2672 147.712 17.8763 147.981 17.5698C148.261 17.2588 148.621 17.0245 149.025 16.8905C149.466 16.7386 149.931 16.662 150.399 16.6641C150.947 16.6555 151.49 16.7501 152 16.9426C152.436 17.1018 152.822 17.3656 153.121 17.709C153.23 17.826 153.293 17.9756 153.3 18.1324C153.296 18.2135 153.273 18.2926 153.232 18.3636C153.191 18.4347 153.134 18.4958 153.065 18.5422C152.952 18.6167 152.817 18.6541 152.68 18.6486C152.439 18.6475 152.208 18.5575 152.034 18.3973C151.825 18.2064 151.577 18.0599 151.305 17.9671C151.003 17.8769 150.687 17.8345 150.371 17.8415C150.013 17.8288 149.657 17.8991 149.333 18.0464C149.063 18.183 148.927 18.3751 148.927 18.6226C148.922 18.7807 148.97 18.9361 149.065 19.0652C149.207 19.2169 149.387 19.3308 149.587 19.3958C149.949 19.5259 150.321 19.6256 150.7 19.6935C151.699 19.8875 152.404 20.1562 152.818 20.4996C153.02 20.6622 153.182 20.8669 153.29 21.0983C153.399 21.3297 153.451 21.5817 153.444 21.8354C153.448 22.2287 153.328 22.6139 153.1 22.9403C152.848 23.2887 152.498 23.5596 152.09 23.7203C151.583 23.9222 151.037 24.0194 150.489 24.0056C149.893 24.0105 149.301 23.9183 148.738 23.7328Z" fill="black"/>
</g>
<defs>
<clipPath id="clip0_310:27">
<rect width="154" height="24" fill="white"/>
</clipPath>
</defs>
</svg>
